<svg width="22" height="16" viewBox="0 0 22 16" fill="none" xmlns="http://www.w3.org/2000/svg">
<g id="Group 11">
<g id="Group">
<g id="Vector">
<path fill-rule="evenodd" clip-rule="evenodd" d="M14.3333 11L17.6667 14.3333L21 11" fill="#FFD60A"/>
<path d="M14.3333 11L17.6667 14.3333L21 11" stroke="black" stroke-width="1.5" stroke-linecap="round" stroke-linejoin="round"/>
</g>
<g id="Vector_2">
<path fill-rule="evenodd" clip-rule="evenodd" d="M9.88889 1H13.2222C14.401 1 15.5314 1.46825 16.3649 2.30175C17.1984 3.13524 17.6667 4.2657 17.6667 5.44445V14.3333M7.66667 4.33333L4.33333 1L1 4.33333" fill="#FFD60A"/>
<path d="M9.88889 1H13.2222C14.401 1 15.5314 1.46825 16.3649 2.30175C17.1984 3.13524 17.6667 4.2657 17.6667 5.44445V14.3333M7.66667 4.33333L4.33333 1L1 4.33333" stroke="black" stroke-width="1.5" stroke-linecap="round" stroke-linejoin="round"/>
</g>
<g id="Vector_3">
<path fill-rule="evenodd" clip-rule="evenodd" d="M12.1111 14.3333H8.77779C7.59905 14.3333 6.46859 13.8651 5.63509 13.0316C4.8016 12.1981 4.33334 11.0676 4.33334 9.88889V1" fill="#FFD60A"/>
<path d="M12.1111 14.3333H8.77779C7.59905 14.3333 6.46859 13.8651 5.63509 13.0316C4.8016 12.1981 4.33334 11.0676 4.33334 9.88889V1" stroke="black" stroke-width="1.5" stroke-linecap="round" stroke-linejoin="round"/>
</g>
</g>
</g>
</svg>
