<svg width="15" height="16" viewBox="0 0 15 16" fill="none" xmlns="http://www.w3.org/2000/svg">
<g id="Vector">
<path d="M7.5 1C8.23882 1 8.94737 1.295 9.4698 1.8201C9.99222 2.3452 10.2857 3.05739 10.2857 3.8V5.66667C10.2857 6.40927 9.99222 7.12146 9.4698 7.64657C8.94737 8.17167 8.23882 8.46667 7.5 8.46667C6.76118 8.46667 6.05263 8.17167 5.5302 7.64657C5.00778 7.12146 4.71429 6.40927 4.71429 5.66667V3.8C4.71429 3.05739 5.00778 2.3452 5.5302 1.8201C6.05263 1.295 6.76118 1 7.5 1ZM14 14.0667V13.3872C14 10.4127 10.5773 8.46667 7.5 8.46667C4.42271 8.46667 1 10.4127 1 13.3872V14.0667C1 14.3142 1.09783 14.5516 1.27197 14.7266C1.44611 14.9017 1.6823 15 1.92857 15H13.0714C13.3177 15 13.5539 14.9017 13.728 14.7266C13.9022 14.5516 14 14.3142 14 14.0667Z" fill="#FFD60A"/>
<path d="M7.5 8.46667C8.23882 8.46667 8.94737 8.17167 9.4698 7.64657C9.99222 7.12146 10.2857 6.40927 10.2857 5.66667V3.8C10.2857 3.05739 9.99222 2.3452 9.4698 1.8201C8.94737 1.295 8.23882 1 7.5 1C6.76118 1 6.05262 1.295 5.5302 1.8201C5.00778 2.3452 4.71429 3.05739 4.71429 3.8V5.66667C4.71429 6.40927 5.00778 7.12146 5.5302 7.64657C6.05262 8.17167 6.76118 8.46667 7.5 8.46667ZM7.5 8.46667C10.5773 8.46667 14 10.4127 14 13.3872V14.0667C14 14.3142 13.9022 14.5516 13.728 14.7266C13.5539 14.9017 13.3177 15 13.0714 15H1.92857C1.6823 15 1.44611 14.9017 1.27197 14.7266C1.09783 14.5516 1 14.3142 1 14.0667V13.3872C1 10.4127 4.42271 8.46667 7.5 8.46667Z" stroke="black" stroke-width="1.5" stroke-linecap="round" stroke-linejoin="round"/>
</g>
</svg>
